<svg fill="none" height="64" viewBox="0 0 111 115" width="64" xmlns="http://www.w3.org/2000/svg"
     xmlns:xlink="http://www.w3.org/1999/xlink">
    <filter id="a" color-interpolation-filters="sRGB" filterUnits="userSpaceOnUse" height="108.567" width="103.005"
            x=".487671" y=".834793">
        <feFlood flood-opacity="0" result="BackgroundImageFix"/>
        <feBlend in="SourceGraphic" in2="BackgroundImageFix" mode="normal" result="shape"/>
        <feGaussianBlur result="effect1_foregroundBlur_1_376" stdDeviation="13.5"/>
    </filter>
    <filter id="b" color-interpolation-filters="sRGB" filterUnits="userSpaceOnUse" height="129.521" width="121.569"
            x="12.4814" y="9.47852">
        <feFlood flood-opacity="0" result="BackgroundImageFix"/>
        <feGaussianBlur in="BackgroundImageFix" stdDeviation="12"/>
        <feComposite in2="SourceAlpha" operator="in" result="effect1_backgroundBlur_1_376"/>
        <feBlend in="SourceGraphic" in2="effect1_backgroundBlur_1_376" mode="normal" result="shape"/>
    </filter>
    <filter id="c" color-interpolation-filters="sRGB" filterUnits="userSpaceOnUse" height="72.4107" width="67.7324"
            x="39.2207" y="37.9688">
        <feFlood flood-opacity="0" result="BackgroundImageFix"/>
        <feGaussianBlur in="BackgroundImageFix" stdDeviation="7.5"/>
        <feComposite in2="SourceAlpha" operator="in" result="effect1_backgroundBlur_1_376"/>
        <feColorMatrix in="SourceAlpha" result="hardAlpha" type="matrix"
                       values="0 0 0 0 0 0 0 0 0 0 0 0 0 0 0 0 0 0 127 0"/>
        <feOffset dx="5" dy="5"/>
        <feGaussianBlur stdDeviation="5"/>
        <feColorMatrix type="matrix" values="0 0 0 0 0.577356 0 0 0 0 0.359375 0 0 0 0 0.9375 0 0 0 0.5 0"/>
        <feBlend in2="effect1_backgroundBlur_1_376" mode="normal" result="effect2_dropShadow_1_376"/>
        <feBlend in="SourceGraphic" in2="effect2_dropShadow_1_376" mode="normal" result="shape"/>
    </filter>
    <linearGradient id="d" gradientUnits="userSpaceOnUse" x1="43.5652" x2="64.1468" y1="18.2617" y2="95.0732">
        <stop offset="0" stop-color="#73BAFB" stop-opacity="0.16" />
        <stop offset="1" stop-color="#1877F2" stop-opacity="0.64"/>
    </linearGradient>
    <linearGradient id="e">
        <stop offset="0" stop-color="#fff" stop-opacity=".25"/>
        <stop offset="1" stop-color="#fff" stop-opacity="0"/>
    </linearGradient>
    <linearGradient id="f" gradientUnits="userSpaceOnUse" x1="48.8741" x2="100.461" xlink:href="#e" y1="43.7428"
                    y2="101.245"/>
    <linearGradient id="g" gradientUnits="userSpaceOnUse" x1="89.278" x2="47.2383" y1="60.6273" y2="61.8468">
        <stop offset="0" stop-color="#fff"/>
        <stop offset="1" stop-color="#fff" stop-opacity=".2"/>
    </linearGradient>
    <linearGradient id="h" gradientUnits="userSpaceOnUse" x1="60.2271" x2="87.7722" xlink:href="#e" y1="57.9097"
                    y2="88.2617"/>
    <mask id="i" fill="#fff">
        <path clip-rule="evenodd"
              d="m57.6796 52.9688v.0397c-1.7137 0-3.1014 1.3916-3.1014 3.1013s1.3877 3.1014 3.1014 3.1014h11.8844c1.7137 0 3.1053-1.3917 3.1053-3.1451 0-1.7057-1.3916-3.0973-3.1053-3.0973zm31.1722 24.2148h-31.1722c-1.7137 0-3.1014-1.3916-3.1014-3.1013s1.3877-3.1053 3.1014-3.1053h31.1722c1.7097 0 3.1014 1.3956 3.1014 3.1053s-1.3917 3.1013-3.1014 3.1013zm.0004 18.1703h-31.1723c-1.1928.1591-2.3459-.4374-2.9821-1.4314-.6361-1.0337-.6361-2.3458 0-3.3399.6362-1.0337 1.7893-1.5904 2.9821-1.4711h31.1723c1.5864.159 2.7832 1.5109 2.7832 3.1411 0 1.5864-1.1968 2.9423-2.7832 3.1013z"
              fill="#fff" fill-rule="evenodd"/>
    </mask>
    <path d="m59.661 13.9489-32.1878 8.6247c-11.6754 3.1284-16.6414 11.7861-13.5027 23.4998l10.6303 39.6732c3.1902 11.9057 11.7786 16.7664 23.4539 13.6385l32.1879-8.6247c11.8635-3.1789 16.6787-11.6315 13.4886-23.5373l-10.6304-39.6731c-3.1387-11.7138-11.5762-16.78-23.4398-13.6011z"
          fill="url(#d)"/>
    <g filter="url(#a)">
        <rect fill="#8237ff" fill-opacity=".5" height="43.4826" rx="14"
              transform="matrix(-.25881905 -.96592583 .96592583 -.25881905 -35.254625 144.037975)" width="51.3486"
              x="37.6348" y="85.5449"/>
    </g>
    <g filter="url(#b)">
        <path d="m89.9296 34.4785h-33.3233c-12.0872 0-19.1249 7.0774-19.1249 19.2044v41.0726c0 12.3255 7.0377 19.2445 19.1249 19.2445h33.3233c12.2824 0 19.1204-6.919 19.1204-19.2445v-41.0726c0-12.127-6.838-19.2044-19.1204-19.2044z"
              fill="#1877F2"/>
        <path d="m89.9296 33.9785h-33.3233c-6.1408 0-11.0628 1.7997-14.4495 5.2018-3.3864 3.4018-5.1754 8.3431-5.1754 14.5026v41.0726c0 6.2565 1.788 11.2095 5.1762 14.5975 3.3881 3.388 8.3109 5.147 14.4487 5.147h33.3233c6.2333 0 11.1564-1.758 14.5214-5.148 3.363-3.39 5.099-8.343 5.099-14.5965v-41.0726c0-6.1557-1.737-11.0977-5.098-14.5012-3.363-3.4045-8.286-5.2032-14.5224-5.2032z"
              stroke="url(#f)" stroke-linecap="round" stroke-linejoin="round"/>
    </g>
    <g filter="url(#c)">
        <path clip-rule="evenodd"
              d="m57.6796 52.9688v.0397c-1.7137 0-3.1014 1.3916-3.1014 3.1013s1.3877 3.1014 3.1014 3.1014h11.8844c1.7137 0 3.1053-1.3917 3.1053-3.1451 0-1.7057-1.3916-3.0973-3.1053-3.0973zm31.1722 24.2148h-31.1722c-1.7137 0-3.1014-1.3916-3.1014-3.1013s1.3877-3.1053 3.1014-3.1053h31.1722c1.7097 0 3.1014 1.3956 3.1014 3.1053s-1.3917 3.1013-3.1014 3.1013zm.0004 18.1703h-31.1723c-1.1928.1591-2.3459-.4374-2.9821-1.4314-.6361-1.0337-.6361-2.3458 0-3.3399.6362-1.0337 1.7893-1.5904 2.9821-1.4711h31.1723c1.5864.159 2.7832 1.5109 2.7832 3.1411 0 1.5864-1.1968 2.9423-2.7832 3.1013z"
              fill="url(#g)" fill-rule="evenodd"/>
        <path d="m57.6796 53.0085v.4h.4v-.4zm0-.0397v-.4001h-.4v.4001zm.0003 42.3851v-.4h-.0266l-.0263.0035zm31.1723 0v.4h.02l.0199-.002zm-34.1544-1.4314-.3407.2097.0038.006zm0-3.3399.337.2157.0037-.006zm2.9821-1.4711-.0398.398.0198.002h.02zm31.1723 0 .0399-.398-.0199-.002h-.02zm-30.7726-36.103v-.0397h-.8v.0397zm-3.1014 3.1013c0-1.4891 1.2089-2.7013 2.7014-2.7013v-.8c-1.935 0-3.5014 1.5711-3.5014 3.5013zm2.7014 2.7014c-1.4925 0-2.7014-1.2122-2.7014-2.7014h-.8c0 1.9303 1.5664 3.5014 3.5014 3.5014zm11.8844 0h-11.8844v.8h11.8844zm2.7053-2.7451c0 1.5359-1.2158 2.7451-2.7053 2.7451v.8c1.9379 0 3.5053-1.5741 3.5053-3.5451zm-2.7053-2.6973c1.4934 0 2.7053 1.2132 2.7053 2.6973h.8c0-1.9273-1.5714-3.4974-3.5053-3.4974zm-11.8844 0h11.8844v-.8001h-11.8844zm0 24.2148h31.1722v-.8h-31.1722zm-3.5014-3.5013c0 1.9303 1.5664 3.5013 3.5014 3.5013v-.8c-1.4925 0-2.7014-1.2122-2.7014-2.7013zm3.5014-3.5053c-1.9356 0-3.5014 1.5757-3.5014 3.5053h.8c0-1.4898 1.2096-2.7053 2.7014-2.7053zm31.1722 0h-31.1722v.8h31.1722zm3.5014 3.5053c0-1.9299-1.5701-3.5053-3.5014-3.5053v.8c1.4882 0 2.7014 1.2159 2.7014 2.7053zm-3.5014 3.5013c1.9307 0 3.5014-1.5707 3.5014-3.5013h-.8c0 1.4888-1.2126 2.7013-2.7014 2.7013zm-31.1719 18.1703h31.1723v-.8h-31.1723zm-3.319-1.6157c.7125 1.1132 2.0118 1.7936 3.3718 1.6122l-.1057-.793c-1.0256.1368-2.0324-.3757-2.5923-1.2505zm0-3.7712c-.7219 1.128-.7174 2.6054-.0037 3.7652l.6813-.4193c-.5587-.9078-.5542-2.0546-.0038-2.9146zm3.3588-1.6535c-1.3429-.1343-2.6448.4932-3.3625 1.6595l.6813.4193c.5546-.9013 1.5588-1.3871 2.6016-1.2828zm31.1325-.002h-31.1723v.8h31.1723zm3.1832 3.5411c0-1.8281-1.345-3.3588-3.1433-3.5391l-.0798.796c1.3745.1378 2.4231 1.3108 2.4231 2.7431zm-3.1433 3.4993c1.7955-.18 3.1433-1.7121 3.1433-3.4993h-.8c0 1.3857-1.0458 2.5652-2.4231 2.7033z"
              fill="url(#h)" mask="url(#i)"/>
    </g>
</svg>
